<svg width="234" height="62" viewBox="0 0 234 62" fill="none" xmlns="http://www.w3.org/2000/svg">
<path d="M22.045 6.53125L6.9825 48H0.826248L18.17 2.5H22.1387L22.045 6.53125ZM34.67 48L19.5762 6.53125L19.4825 2.5H23.4512L40.8575 48H34.67ZM33.8887 31.1562V36.0938H8.32625V31.1562H33.8887ZM55.2375 0V48H49.425V0H55.2375ZM73.68 14.1875V48H67.8675V14.1875H73.68ZM67.43 5.21875C67.43 4.28125 67.7113 3.48958 68.2738 2.84375C68.8571 2.19792 69.7113 1.875 70.8363 1.875C71.9404 1.875 72.7842 2.19792 73.3675 2.84375C73.9717 3.48958 74.2738 4.28125 74.2738 5.21875C74.2738 6.11458 73.9717 6.88542 73.3675 7.53125C72.7842 8.15625 71.9404 8.46875 70.8363 8.46875C69.7113 8.46875 68.8571 8.15625 68.2738 7.53125C67.7113 6.88542 67.43 6.11458 67.43 5.21875ZM107.747 14.1875H112.997V47.2812C112.997 50.2604 112.393 52.8021 111.185 54.9062C109.977 57.0104 108.289 58.6042 106.122 59.6875C103.977 60.7917 101.497 61.3438 98.685 61.3438C97.5183 61.3438 96.1433 61.1562 94.56 60.7812C92.9975 60.4271 91.4558 59.8125 89.935 58.9375C88.435 58.0833 87.1746 56.9271 86.1537 55.4688L89.185 52.0312C90.6017 53.7396 92.0808 54.9271 93.6225 55.5938C95.185 56.2604 96.7267 56.5938 98.2475 56.5938C100.081 56.5938 101.664 56.25 102.997 55.5625C104.331 54.875 105.362 53.8542 106.091 52.5C106.841 51.1667 107.216 49.5208 107.216 47.5625V21.625L107.747 14.1875ZM84.4662 31.4688V30.8125C84.4662 28.2292 84.7683 25.8854 85.3725 23.7812C85.9975 21.6562 86.8829 19.8333 88.0287 18.3125C89.1954 16.7917 90.6017 15.625 92.2475 14.8125C93.8933 13.9792 95.7475 13.5625 97.81 13.5625C99.935 13.5625 101.789 13.9375 103.372 14.6875C104.977 15.4167 106.331 16.4896 107.435 17.9062C108.56 19.3021 109.445 20.9896 110.091 22.9688C110.737 24.9479 111.185 27.1875 111.435 29.6875V32.5625C111.206 35.0417 110.758 37.2708 110.091 39.25C109.445 41.2292 108.56 42.9167 107.435 44.3125C106.331 45.7083 104.977 46.7812 103.372 47.5312C101.768 48.2604 99.8933 48.625 97.7475 48.625C95.7267 48.625 93.8933 48.1979 92.2475 47.3438C90.6225 46.4896 89.2267 45.2917 88.06 43.75C86.8933 42.2083 85.9975 40.3958 85.3725 38.3125C84.7683 36.2083 84.4662 33.9271 84.4662 31.4688ZM90.2475 30.8125V31.4688C90.2475 33.1562 90.4142 34.7396 90.7475 36.2188C91.1017 37.6979 91.6329 39 92.3412 40.125C93.0704 41.25 93.9975 42.1354 95.1225 42.7812C96.2475 43.4062 97.5912 43.7188 99.1537 43.7188C101.07 43.7188 102.654 43.3125 103.904 42.5C105.154 41.6875 106.143 40.6146 106.872 39.2812C107.622 37.9479 108.206 36.5 108.622 34.9375V27.4062C108.393 26.2604 108.039 25.1562 107.56 24.0938C107.102 23.0104 106.497 22.0521 105.747 21.2188C105.018 20.3646 104.112 19.6875 103.029 19.1875C101.945 18.6875 100.675 18.4375 99.2162 18.4375C97.6329 18.4375 96.2683 18.7708 95.1225 19.4375C93.9975 20.0833 93.0704 20.9792 92.3412 22.125C91.6329 23.25 91.1017 24.5625 90.7475 26.0625C90.4142 27.5417 90.2475 29.125 90.2475 30.8125ZM130.44 21.4062V48H124.659V14.1875H130.128L130.44 21.4062ZM129.065 29.8125L126.659 29.7188C126.68 27.4062 127.023 25.2708 127.69 23.3125C128.357 21.3333 129.294 19.6146 130.503 18.1562C131.711 16.6979 133.148 15.5729 134.815 14.7812C136.503 13.9688 138.367 13.5625 140.409 13.5625C142.075 13.5625 143.575 13.7917 144.909 14.25C146.242 14.6875 147.378 15.3958 148.315 16.375C149.273 17.3542 150.003 18.625 150.503 20.1875C151.003 21.7292 151.253 23.6146 151.253 25.8438V48H145.44V25.7812C145.44 24.0104 145.18 22.5938 144.659 21.5312C144.138 20.4479 143.378 19.6667 142.378 19.1875C141.378 18.6875 140.148 18.4375 138.69 18.4375C137.253 18.4375 135.94 18.7396 134.753 19.3438C133.586 19.9479 132.575 20.7812 131.721 21.8438C130.888 22.9062 130.232 24.125 129.753 25.5C129.294 26.8542 129.065 28.2917 129.065 29.8125ZM208.575 2.5H214.575V33.2812C214.575 36.6979 213.815 39.5417 212.294 41.8125C210.773 44.0833 208.752 45.7917 206.231 46.9375C203.731 48.0625 201.012 48.625 198.075 48.625C194.992 48.625 192.2 48.0625 189.7 46.9375C187.221 45.7917 185.252 44.0833 183.794 41.8125C182.356 39.5417 181.637 36.6979 181.637 33.2812V2.5H187.606V33.2812C187.606 35.6562 188.044 37.6146 188.919 39.1562C189.794 40.6979 191.012 41.8438 192.575 42.5938C194.158 43.3438 195.992 43.7188 198.075 43.7188C200.179 43.7188 202.012 43.3438 203.575 42.5938C205.158 41.8438 206.387 40.6979 207.262 39.1562C208.137 37.6146 208.575 35.6562 208.575 33.2812V2.5ZM233.393 2.5V48H227.361V2.5H233.393Z" fill="#172426"/>
</svg>
