<svg width="86" height="35" viewBox="0 0 86 35" fill="none" xmlns="http://www.w3.org/2000/svg">
<path d="M12.4453 3.67383L3.97266 27H0.509766L10.2656 1.40625H12.498L12.4453 3.67383ZM19.5469 27L11.0566 3.67383L11.0039 1.40625H13.2363L23.0273 27H19.5469ZM19.1074 17.5254V20.3027H4.72852V17.5254H19.1074ZM31.0961 0V27H27.8266V0H31.0961ZM41.45 7.98047V27H38.1805V7.98047H41.45ZM37.9344 2.93555C37.9344 2.4082 38.0926 1.96289 38.409 1.59961C38.7371 1.23633 39.2176 1.05469 39.8504 1.05469C40.4715 1.05469 40.9461 1.23633 41.2742 1.59961C41.6141 1.96289 41.784 2.4082 41.784 2.93555C41.784 3.43945 41.6141 3.87305 41.2742 4.23633C40.9461 4.58789 40.4715 4.76367 39.8504 4.76367C39.2176 4.76367 38.7371 4.58789 38.409 4.23633C38.0926 3.87305 37.9344 3.43945 37.9344 2.93555ZM60.593 7.98047H63.5461V26.5957C63.5461 28.2715 63.2062 29.7012 62.5266 30.8848C61.8469 32.0684 60.8977 32.9648 59.6789 33.5742C58.4719 34.1953 57.0773 34.5059 55.4953 34.5059C54.8391 34.5059 54.0656 34.4004 53.175 34.1895C52.2961 33.9902 51.4289 33.6445 50.5734 33.1523C49.7297 32.6719 49.0207 32.0215 48.4465 31.2012L50.1516 29.2676C50.9484 30.2285 51.7805 30.8965 52.6477 31.2715C53.5266 31.6465 54.3937 31.834 55.2492 31.834C56.2805 31.834 57.1711 31.6406 57.9211 31.2539C58.6711 30.8672 59.2512 30.293 59.6613 29.5312C60.0832 28.7812 60.2941 27.8555 60.2941 26.7539V12.1641L60.593 7.98047ZM47.4973 17.7012V17.332C47.4973 15.8789 47.6672 14.5605 48.007 13.377C48.3586 12.1816 48.8566 11.1562 49.5012 10.3008C50.1574 9.44531 50.9484 8.78906 51.8742 8.33203C52.8 7.86328 53.843 7.62891 55.0031 7.62891C56.1984 7.62891 57.2414 7.83984 58.132 8.26172C59.0344 8.67188 59.7961 9.27539 60.4172 10.0723C61.05 10.8574 61.548 11.8066 61.9113 12.9199C62.2746 14.0332 62.5266 15.293 62.6672 16.6992V18.3164C62.5383 19.7109 62.2863 20.9648 61.9113 22.0781C61.548 23.1914 61.05 24.1406 60.4172 24.9258C59.7961 25.7109 59.0344 26.3145 58.132 26.7363C57.2297 27.1465 56.175 27.3516 54.968 27.3516C53.8312 27.3516 52.8 27.1113 51.8742 26.6309C50.9602 26.1504 50.175 25.4766 49.5187 24.6094C48.8625 23.7422 48.3586 22.7227 48.007 21.5508C47.6672 20.3672 47.4973 19.084 47.4973 17.7012ZM50.7492 17.332V17.7012C50.7492 18.6504 50.843 19.541 51.0305 20.373C51.2297 21.2051 51.5285 21.9375 51.927 22.5703C52.3371 23.2031 52.8586 23.7012 53.4914 24.0645C54.1242 24.416 54.8801 24.5918 55.759 24.5918C56.8371 24.5918 57.7277 24.3633 58.4309 23.9062C59.134 23.4492 59.6906 22.8457 60.1008 22.0957C60.5227 21.3457 60.8508 20.5312 61.0852 19.6523V15.416C60.9562 14.7715 60.757 14.1504 60.4875 13.5527C60.2297 12.9434 59.8898 12.4043 59.468 11.9355C59.0578 11.4551 58.548 11.0742 57.9387 10.793C57.3293 10.5117 56.6145 10.3711 55.7941 10.3711C54.9035 10.3711 54.1359 10.5586 53.4914 10.9336C52.8586 11.2969 52.3371 11.8008 51.927 12.4453C51.5285 13.0781 51.2297 13.8164 51.0305 14.6602C50.843 15.4922 50.7492 16.3828 50.7492 17.332ZM73.3375 12.041V27H70.0855V7.98047H73.1617L73.3375 12.041ZM72.5641 16.7695L71.2105 16.7168C71.2223 15.416 71.4156 14.2148 71.7906 13.1133C72.1656 12 72.693 11.0332 73.3727 10.2129C74.0523 9.39258 74.8609 8.75977 75.7984 8.31445C76.7477 7.85742 77.7965 7.62891 78.9449 7.62891C79.8824 7.62891 80.7262 7.75781 81.4762 8.01562C82.2262 8.26172 82.8648 8.66016 83.3922 9.21094C83.9313 9.76172 84.3414 10.4766 84.6227 11.3555C84.9039 12.2227 85.0445 13.2832 85.0445 14.5371V27H81.775V14.502C81.775 13.5059 81.6285 12.709 81.3355 12.1113C81.0426 11.502 80.6148 11.0625 80.0523 10.793C79.4898 10.5117 78.7984 10.3711 77.9781 10.3711C77.1695 10.3711 76.4313 10.541 75.7633 10.8809C75.107 11.2207 74.5387 11.6895 74.0582 12.2871C73.5895 12.8848 73.2203 13.5703 72.9508 14.3438C72.693 15.1055 72.5641 15.9141 72.5641 16.7695Z" fill="white"/>
</svg>
