<svg width="1280" height="43" viewBox="0 0 1280 43" fill="none" xmlns="http://www.w3.org/2000/svg">
<path d="M23.018 8.66666H26.4865V35.3333H23.018V8.66666Z" fill="#84A17D"/>
<path d="M0 13.6667H19.5495V20.3333H0V13.6667Z" fill="#84A17D"/>
<path d="M7.40993 23.6667H19.5495V30.3333H7.40993V23.6667Z" fill="#84A17D"/>
<path d="M40.0995 31.2471H36.4651L43.7339 10.9327H47.3407L54.6094 31.2471H50.8925L49.268 26.5506H41.7515L40.0995 31.2471ZM45.083 16.9909L42.7702 23.5493H48.2493L45.9365 16.9909C45.8631 16.713 45.7805 16.4351 45.6887 16.1572C45.597 15.8793 45.5419 15.6385 45.5235 15.4347C45.4868 15.6199 45.4226 15.8608 45.3308 16.1572C45.2574 16.4351 45.1748 16.713 45.083 16.9909Z" fill="#F4F5F6"/>
<path d="M59.4735 31.2471H56.142V10.5715H59.4735V31.2471Z" fill="#F4F5F6"/>
<path d="M62.4465 31.2471V17.5189H65.8055V31.2471H62.4465ZM64.0984 14.7677C63.5294 14.7677 63.043 14.5732 62.6392 14.1841C62.2537 13.7765 62.061 13.2856 62.061 12.7113C62.061 12.137 62.2537 11.6553 62.6392 11.2662C63.043 10.8771 63.5294 10.6826 64.0984 10.6826C64.6675 10.6826 65.1447 10.8771 65.5302 11.2662C65.934 11.6553 66.1359 12.137 66.1359 12.7113C66.1359 13.2856 65.934 13.7765 65.5302 14.1841C65.1447 14.5732 64.6675 14.7677 64.0984 14.7677Z" fill="#F4F5F6"/>
<path d="M67.9544 24.0773C67.9544 22.7434 68.2206 21.5577 68.753 20.5202C69.3032 19.4642 70.0654 18.6305 71.0381 18.0191C72.0108 17.4077 73.1398 17.1021 74.4244 17.1021C75.5812 17.1021 76.5724 17.3615 77.3981 17.8802C78.2239 18.3804 78.8026 19.0844 79.133 19.9922L78.7748 20.2979L79.0502 17.5189H82.1617V30.5523C82.1617 32.0715 81.8677 33.3869 81.2804 34.4985C80.7116 35.6286 79.8945 36.4901 78.8297 37.0829C77.7835 37.6943 76.5175 38 75.0303 38C73.0848 38 71.4877 37.472 70.2395 36.416C68.9913 35.36 68.257 33.9149 68.0372 32.0808H71.3963C71.5062 32.9701 71.8731 33.6648 72.4975 34.165C73.1398 34.6653 73.984 34.9153 75.0303 34.9153C76.1871 34.9153 77.1048 34.5726 77.7835 33.8871C78.4814 33.2202 78.8297 32.3124 78.8297 31.1637V27.7456L79.2151 28.1069C78.8847 28.9776 78.2795 29.6723 77.3981 30.1911C76.5175 30.7098 75.4984 30.9692 74.3423 30.9692C73.057 30.9692 71.9373 30.6728 70.9831 30.0799C70.0283 29.4871 69.2853 28.6719 68.753 27.6344C68.2206 26.5969 67.9544 25.4112 67.9544 24.0773ZM71.3407 23.9939C71.3407 24.7721 71.4877 25.4668 71.7817 26.0782C72.0936 26.671 72.5246 27.1435 73.0756 27.4955C73.6265 27.8475 74.2688 28.0235 75.0031 28.0235C75.7739 28.0235 76.4347 27.8567 76.985 27.5233C77.5544 27.1713 77.9855 26.6988 78.2795 26.106C78.5914 25.4946 78.7476 24.7906 78.7476 23.9939C78.7476 23.1973 78.6006 22.5118 78.3066 21.9375C78.0133 21.3447 77.5816 20.8815 77.0128 20.548C76.4619 20.2145 75.7924 20.0478 75.0031 20.0478C74.2502 20.0478 73.5987 20.2238 73.0477 20.5758C72.4975 20.9093 72.075 21.3725 71.7817 21.9653C71.4877 22.5581 71.3407 23.2343 71.3407 23.9939Z" fill="#F4F5F6"/>
<path d="M88.4463 31.2471H85.0872V17.5189H88.198L88.4735 19.2975C88.8959 18.612 89.4925 18.0747 90.2633 17.6857C91.0526 17.2966 91.9061 17.1021 92.8239 17.1021C94.5309 17.1021 95.8155 17.6115 96.6783 18.6305C97.5597 19.6495 98 21.0389 98 22.799V31.2471H94.6408V23.6049C94.6408 22.4563 94.3839 21.604 93.8701 21.0482C93.3562 20.4739 92.6583 20.1867 91.7776 20.1867C90.7314 20.1867 89.9143 20.5202 89.327 21.1872C88.7396 21.8541 88.4463 22.7434 88.4463 23.855V31.2471Z" fill="#F4F5F6"/>
<path d="M285.5 5C285.5 3.067 287.067 1.5 289 1.5H374C375.933 1.5 377.5 3.067 377.5 5V39C377.5 40.933 375.933 42.5 374 42.5H289C287.067 42.5 285.5 40.933 285.5 39V5Z" stroke="#153C3C"/>
<path d="M315.171 22.8179H312.322V21.668H315.171C315.723 21.668 316.169 21.5801 316.511 21.4043C316.853 21.2285 317.102 20.9844 317.258 20.6719C317.419 20.3594 317.5 20.0029 317.5 19.6025C317.5 19.2363 317.419 18.8921 317.258 18.5698C317.102 18.2476 316.853 17.9888 316.511 17.7935C316.169 17.5933 315.723 17.4932 315.171 17.4932H312.651V27H311.238V16.3359H315.171C315.977 16.3359 316.658 16.4751 317.214 16.7534C317.771 17.0317 318.193 17.4175 318.481 17.9106C318.77 18.3989 318.914 18.958 318.914 19.5879C318.914 20.2715 318.77 20.855 318.481 21.3384C318.193 21.8218 317.771 22.1904 317.214 22.4443C316.658 22.6934 315.977 22.8179 315.171 22.8179ZM325.401 25.645V21.5654C325.401 21.2529 325.337 20.9819 325.21 20.7524C325.088 20.5181 324.903 20.3374 324.653 20.2104C324.404 20.0835 324.097 20.02 323.731 20.02C323.389 20.02 323.089 20.0786 322.83 20.1958C322.576 20.313 322.376 20.4668 322.229 20.6572C322.088 20.8477 322.017 21.0527 322.017 21.2725H320.662C320.662 20.9893 320.735 20.7085 320.882 20.4302C321.028 20.1519 321.238 19.9004 321.511 19.6758C321.79 19.4463 322.122 19.2656 322.507 19.1338C322.898 18.9971 323.333 18.9287 323.811 18.9287C324.387 18.9287 324.895 19.0264 325.335 19.2217C325.779 19.417 326.126 19.7124 326.375 20.1079C326.629 20.4985 326.756 20.9893 326.756 21.5801V25.2715C326.756 25.5352 326.778 25.8159 326.821 26.1138C326.87 26.4116 326.941 26.668 327.034 26.8828V27H325.62C325.552 26.8438 325.498 26.6362 325.459 26.3774C325.42 26.1138 325.401 25.8696 325.401 25.645ZM325.635 22.1953L325.65 23.1475H324.28C323.894 23.1475 323.55 23.1792 323.247 23.2427C322.945 23.3013 322.691 23.3916 322.486 23.5137C322.28 23.6357 322.124 23.7896 322.017 23.9751C321.909 24.1558 321.856 24.3682 321.856 24.6123C321.856 24.8613 321.912 25.0884 322.024 25.2935C322.136 25.4985 322.305 25.6621 322.529 25.7842C322.759 25.9014 323.04 25.96 323.372 25.96C323.787 25.96 324.153 25.8721 324.47 25.6963C324.788 25.5205 325.039 25.3057 325.225 25.0518C325.415 24.7979 325.518 24.5513 325.532 24.312L326.111 24.9639C326.077 25.1689 325.984 25.396 325.833 25.645C325.681 25.894 325.479 26.1333 325.225 26.3628C324.976 26.5874 324.678 26.7754 324.331 26.9268C323.989 27.0732 323.604 27.1465 323.174 27.1465C322.637 27.1465 322.166 27.0415 321.76 26.8315C321.36 26.6216 321.048 26.3408 320.823 25.9893C320.603 25.6328 320.493 25.2349 320.493 24.7954C320.493 24.3706 320.576 23.9971 320.742 23.6748C320.908 23.3477 321.148 23.0767 321.46 22.8618C321.773 22.6421 322.149 22.4761 322.588 22.3638C323.028 22.2515 323.518 22.1953 324.06 22.1953H325.635ZM334.341 19.0752H335.572V26.8315C335.572 27.5298 335.43 28.1255 335.147 28.6187C334.864 29.1118 334.468 29.4854 333.96 29.7393C333.457 29.998 332.876 30.1274 332.217 30.1274C331.944 30.1274 331.621 30.0835 331.25 29.9956C330.884 29.9126 330.523 29.7686 330.166 29.5635C329.815 29.3633 329.519 29.0923 329.28 28.7505L329.991 27.9448C330.323 28.3452 330.669 28.6235 331.031 28.7798C331.397 28.936 331.758 29.0142 332.115 29.0142C332.544 29.0142 332.915 28.9336 333.228 28.7725C333.54 28.6113 333.782 28.3721 333.953 28.0547C334.129 27.7422 334.217 27.3564 334.217 26.8975V20.8184L334.341 19.0752ZM328.885 23.1255V22.9717C328.885 22.3662 328.955 21.8169 329.097 21.3237C329.244 20.8257 329.451 20.3984 329.72 20.042C329.993 19.6855 330.323 19.4121 330.708 19.2217C331.094 19.0264 331.529 18.9287 332.012 18.9287C332.51 18.9287 332.945 19.0166 333.316 19.1924C333.692 19.3633 334.009 19.6147 334.268 19.9468C334.532 20.2739 334.739 20.6694 334.89 21.1333C335.042 21.5972 335.147 22.1221 335.205 22.708V23.3818C335.152 23.9629 335.047 24.4854 334.89 24.9492C334.739 25.4131 334.532 25.8086 334.268 26.1357C334.009 26.4629 333.692 26.7144 333.316 26.8901C332.94 27.061 332.5 27.1465 331.997 27.1465C331.524 27.1465 331.094 27.0464 330.708 26.8462C330.327 26.646 330 26.3652 329.727 26.0039C329.453 25.6426 329.244 25.2178 329.097 24.7295C328.955 24.2363 328.885 23.7017 328.885 23.1255ZM330.24 22.9717V23.1255C330.24 23.521 330.279 23.8921 330.357 24.2388C330.44 24.5854 330.564 24.8906 330.73 25.1543C330.901 25.418 331.119 25.6255 331.382 25.7769C331.646 25.9233 331.961 25.9966 332.327 25.9966C332.776 25.9966 333.147 25.9014 333.44 25.7109C333.733 25.5205 333.965 25.269 334.136 24.9565C334.312 24.644 334.449 24.3047 334.546 23.9385V22.1733C334.493 21.9048 334.41 21.646 334.297 21.397C334.19 21.1431 334.048 20.9185 333.872 20.7231C333.702 20.5229 333.489 20.3643 333.235 20.2471C332.981 20.1299 332.683 20.0713 332.342 20.0713C331.971 20.0713 331.651 20.1494 331.382 20.3057C331.119 20.457 330.901 20.667 330.73 20.9355C330.564 21.1992 330.44 21.5068 330.357 21.8584C330.279 22.2051 330.24 22.5762 330.24 22.9717ZM341.238 27.1465C340.687 27.1465 340.186 27.0537 339.737 26.8682C339.293 26.6777 338.909 26.4116 338.587 26.0698C338.27 25.728 338.025 25.3228 337.855 24.854C337.684 24.3853 337.598 23.8726 337.598 23.3159V23.0083C337.598 22.3638 337.693 21.79 337.884 21.2871C338.074 20.7793 338.333 20.3496 338.66 19.998C338.987 19.6465 339.358 19.3804 339.773 19.1997C340.189 19.019 340.618 18.9287 341.063 18.9287C341.629 18.9287 342.117 19.0264 342.527 19.2217C342.942 19.417 343.282 19.6904 343.545 20.042C343.809 20.3887 344.004 20.7988 344.131 21.2725C344.258 21.7412 344.322 22.2539 344.322 22.8105V23.4185H338.404V22.3125H342.967V22.21C342.947 21.8584 342.874 21.5166 342.747 21.1846C342.625 20.8525 342.43 20.5791 342.161 20.3643C341.893 20.1494 341.526 20.042 341.063 20.042C340.755 20.042 340.472 20.1079 340.213 20.2397C339.954 20.3667 339.732 20.5571 339.546 20.811C339.361 21.0649 339.217 21.375 339.114 21.7412C339.012 22.1074 338.96 22.5298 338.96 23.0083V23.3159C338.96 23.6919 339.012 24.0459 339.114 24.3779C339.222 24.7051 339.376 24.9932 339.576 25.2422C339.781 25.4912 340.027 25.6865 340.315 25.8281C340.608 25.9697 340.94 26.0405 341.312 26.0405C341.79 26.0405 342.195 25.9429 342.527 25.7476C342.859 25.5522 343.15 25.291 343.399 24.9639L344.219 25.6157C344.048 25.8745 343.831 26.1211 343.567 26.3555C343.304 26.5898 342.979 26.7803 342.593 26.9268C342.212 27.0732 341.761 27.1465 341.238 27.1465ZM350.838 24.8979C350.838 24.7026 350.794 24.522 350.706 24.356C350.623 24.1851 350.45 24.0312 350.186 23.8945C349.927 23.7529 349.537 23.6309 349.014 23.5283C348.575 23.4355 348.177 23.3257 347.821 23.1987C347.469 23.0718 347.169 22.918 346.92 22.7373C346.676 22.5566 346.488 22.3442 346.356 22.1001C346.224 21.856 346.158 21.5703 346.158 21.2432C346.158 20.9307 346.226 20.6353 346.363 20.3569C346.505 20.0786 346.702 19.832 346.956 19.6172C347.215 19.4023 347.525 19.2339 347.886 19.1118C348.248 18.9897 348.651 18.9287 349.095 18.9287C349.73 18.9287 350.272 19.041 350.721 19.2656C351.17 19.4902 351.514 19.7905 351.754 20.1665C351.993 20.5376 352.113 20.9502 352.113 21.4043H350.758C350.758 21.1846 350.692 20.9722 350.56 20.7671C350.433 20.5571 350.245 20.3838 349.996 20.2471C349.752 20.1104 349.451 20.042 349.095 20.042C348.719 20.042 348.414 20.1006 348.179 20.2178C347.95 20.3301 347.781 20.4741 347.674 20.6499C347.572 20.8257 347.52 21.0112 347.52 21.2065C347.52 21.353 347.545 21.4849 347.593 21.6021C347.647 21.7144 347.74 21.8193 347.872 21.917C348.004 22.0098 348.189 22.0977 348.428 22.1807C348.668 22.2637 348.973 22.3467 349.344 22.4297C349.993 22.5762 350.528 22.752 350.948 22.957C351.368 23.1621 351.68 23.4136 351.885 23.7114C352.091 24.0093 352.193 24.3706 352.193 24.7954C352.193 25.1421 352.12 25.4595 351.973 25.7476C351.832 26.0356 351.624 26.2847 351.351 26.4946C351.082 26.6997 350.76 26.8608 350.384 26.978C350.013 27.0903 349.595 27.1465 349.132 27.1465C348.433 27.1465 347.842 27.022 347.359 26.7729C346.876 26.5239 346.509 26.2017 346.26 25.8062C346.011 25.4106 345.887 24.9932 345.887 24.5537H347.249C347.269 24.9248 347.376 25.2202 347.572 25.4399C347.767 25.6548 348.006 25.8086 348.289 25.9014C348.572 25.9893 348.853 26.0332 349.132 26.0332C349.503 26.0332 349.813 25.9844 350.062 25.8867C350.316 25.7891 350.509 25.6548 350.64 25.4839C350.772 25.313 350.838 25.1177 350.838 24.8979Z" fill="#DDE4E4"/>
<path d="M170.5 5C170.5 3.067 172.067 1.5 174 1.5H281C282.933 1.5 284.5 3.067 284.5 5V39C284.5 40.933 282.933 42.5 281 42.5H174C172.067 42.5 170.5 40.933 170.5 39V5Z" stroke="#153C3C"/>
<path d="M204.448 21.3311V22.0049C204.448 22.8057 204.348 23.5234 204.148 24.1582C203.948 24.793 203.66 25.3325 203.284 25.7769C202.908 26.2212 202.456 26.5605 201.929 26.7949C201.406 27.0293 200.82 27.1465 200.171 27.1465C199.541 27.1465 198.962 27.0293 198.435 26.7949C197.913 26.5605 197.458 26.2212 197.073 25.7769C196.692 25.3325 196.396 24.793 196.187 24.1582C195.977 23.5234 195.872 22.8057 195.872 22.0049V21.3311C195.872 20.5303 195.974 19.8149 196.179 19.1851C196.389 18.5503 196.685 18.0107 197.065 17.5664C197.446 17.1172 197.898 16.7754 198.42 16.541C198.948 16.3066 199.526 16.1895 200.156 16.1895C200.806 16.1895 201.392 16.3066 201.914 16.541C202.441 16.7754 202.893 17.1172 203.269 17.5664C203.65 18.0107 203.94 18.5503 204.141 19.1851C204.346 19.8149 204.448 20.5303 204.448 21.3311ZM203.049 22.0049V21.3164C203.049 20.6816 202.983 20.1201 202.852 19.6318C202.725 19.1436 202.537 18.7334 202.288 18.4014C202.039 18.0693 201.733 17.8179 201.372 17.647C201.016 17.4761 200.61 17.3906 200.156 17.3906C199.717 17.3906 199.319 17.4761 198.962 17.647C198.611 17.8179 198.308 18.0693 198.054 18.4014C197.805 18.7334 197.612 19.1436 197.476 19.6318C197.339 20.1201 197.271 20.6816 197.271 21.3164V22.0049C197.271 22.6445 197.339 23.2109 197.476 23.7041C197.612 24.1924 197.808 24.605 198.062 24.9419C198.32 25.2739 198.625 25.5254 198.977 25.6963C199.333 25.8672 199.731 25.9526 200.171 25.9526C200.63 25.9526 201.038 25.8672 201.394 25.6963C201.75 25.5254 202.051 25.2739 202.295 24.9419C202.544 24.605 202.732 24.1924 202.859 23.7041C202.986 23.2109 203.049 22.6445 203.049 22.0049ZM209.09 25.7769L211.257 19.0752H212.642L209.793 27H208.884L209.09 25.7769ZM207.28 19.0752L209.514 25.8135L209.668 27H208.76L205.889 19.0752H207.28ZM217.452 27.1465C216.9 27.1465 216.399 27.0537 215.95 26.8682C215.506 26.6777 215.122 26.4116 214.8 26.0698C214.483 25.728 214.239 25.3228 214.068 24.854C213.897 24.3853 213.811 23.8726 213.811 23.3159V23.0083C213.811 22.3638 213.907 21.79 214.097 21.2871C214.287 20.7793 214.546 20.3496 214.873 19.998C215.201 19.6465 215.572 19.3804 215.987 19.1997C216.402 19.019 216.831 18.9287 217.276 18.9287C217.842 18.9287 218.33 19.0264 218.741 19.2217C219.156 19.417 219.495 19.6904 219.759 20.042C220.022 20.3887 220.218 20.7988 220.345 21.2725C220.472 21.7412 220.535 22.2539 220.535 22.8105V23.4185H214.617V22.3125H219.18V22.21C219.161 21.8584 219.087 21.5166 218.96 21.1846C218.838 20.8525 218.643 20.5791 218.374 20.3643C218.106 20.1494 217.74 20.042 217.276 20.042C216.968 20.042 216.685 20.1079 216.426 20.2397C216.167 20.3667 215.945 20.5571 215.76 20.811C215.574 21.0649 215.43 21.375 215.327 21.7412C215.225 22.1074 215.174 22.5298 215.174 23.0083V23.3159C215.174 23.6919 215.225 24.0459 215.327 24.3779C215.435 24.7051 215.589 24.9932 215.789 25.2422C215.994 25.4912 216.241 25.6865 216.529 25.8281C216.822 25.9697 217.154 26.0405 217.525 26.0405C218.003 26.0405 218.409 25.9429 218.741 25.7476C219.073 25.5522 219.363 25.291 219.612 24.9639L220.432 25.6157C220.262 25.8745 220.044 26.1211 219.781 26.3555C219.517 26.5898 219.192 26.7803 218.807 26.9268C218.426 27.0732 217.974 27.1465 217.452 27.1465ZM223.792 20.3203V27H222.437V19.0752H223.755L223.792 20.3203ZM226.268 19.0312L226.26 20.291C226.148 20.2666 226.041 20.252 225.938 20.2471C225.84 20.2373 225.728 20.2324 225.601 20.2324C225.289 20.2324 225.013 20.2812 224.773 20.3789C224.534 20.4766 224.332 20.6133 224.166 20.7891C224 20.9648 223.868 21.1748 223.77 21.4189C223.677 21.6582 223.616 21.9219 223.587 22.21L223.206 22.4297C223.206 21.9512 223.252 21.502 223.345 21.082C223.443 20.6621 223.592 20.291 223.792 19.9688C223.992 19.6416 224.246 19.3877 224.554 19.207C224.866 19.0215 225.237 18.9287 225.667 18.9287C225.765 18.9287 225.877 18.9409 226.004 18.9653C226.131 18.9849 226.219 19.0068 226.268 19.0312ZM230.382 25.7769L232.55 19.0752H233.934L231.085 27H230.176L230.382 25.7769ZM228.572 19.0752L230.806 25.8135L230.96 27H230.052L227.181 19.0752H228.572ZM237.03 19.0752V27H235.667V19.0752H237.03ZM235.565 16.9731C235.565 16.7534 235.631 16.5679 235.763 16.4165C235.899 16.2651 236.1 16.1895 236.363 16.1895C236.622 16.1895 236.82 16.2651 236.956 16.4165C237.098 16.5679 237.169 16.7534 237.169 16.9731C237.169 17.1831 237.098 17.3638 236.956 17.5151C236.82 17.6616 236.622 17.7349 236.363 17.7349C236.1 17.7349 235.899 17.6616 235.763 17.5151C235.631 17.3638 235.565 17.1831 235.565 16.9731ZM242.814 27.1465C242.262 27.1465 241.761 27.0537 241.312 26.8682C240.868 26.6777 240.484 26.4116 240.162 26.0698C239.845 25.728 239.601 25.3228 239.43 24.854C239.259 24.3853 239.173 23.8726 239.173 23.3159V23.0083C239.173 22.3638 239.269 21.79 239.459 21.2871C239.649 20.7793 239.908 20.3496 240.235 19.998C240.563 19.6465 240.934 19.3804 241.349 19.1997C241.764 19.019 242.193 18.9287 242.638 18.9287C243.204 18.9287 243.692 19.0264 244.103 19.2217C244.518 19.417 244.857 19.6904 245.121 20.042C245.384 20.3887 245.58 20.7988 245.707 21.2725C245.834 21.7412 245.897 22.2539 245.897 22.8105V23.4185H239.979V22.3125H244.542V22.21C244.523 21.8584 244.449 21.5166 244.322 21.1846C244.2 20.8525 244.005 20.5791 243.736 20.3643C243.468 20.1494 243.102 20.042 242.638 20.042C242.33 20.042 242.047 20.1079 241.788 20.2397C241.529 20.3667 241.307 20.5571 241.122 20.811C240.936 21.0649 240.792 21.375 240.69 21.7412C240.587 22.1074 240.536 22.5298 240.536 23.0083V23.3159C240.536 23.6919 240.587 24.0459 240.69 24.3779C240.797 24.7051 240.951 24.9932 241.151 25.2422C241.356 25.4912 241.603 25.6865 241.891 25.8281C242.184 25.9697 242.516 26.0405 242.887 26.0405C243.365 26.0405 243.771 25.9429 244.103 25.7476C244.435 25.5522 244.725 25.291 244.974 24.9639L245.795 25.6157C245.624 25.8745 245.406 26.1211 245.143 26.3555C244.879 26.5898 244.554 26.7803 244.169 26.9268C243.788 27.0732 243.336 27.1465 242.814 27.1465ZM249.806 25.5938L251.842 19.0752H252.736L252.56 20.3716L250.487 27H249.615L249.806 25.5938ZM248.436 19.0752L250.172 25.667L250.297 27H249.381L247.081 19.0752H248.436ZM254.684 25.6157L256.339 19.0752H257.687L255.387 27H254.479L254.684 25.6157ZM252.933 19.0752L254.926 25.4839L255.153 27H254.288L252.157 20.3569L251.981 19.0752H252.933Z" fill="#DDE4E4"/>
<path d="M379.5 5C379.5 3.067 381.067 1.5 383 1.5H490C491.933 1.5 493.5 3.067 493.5 5V39C493.5 40.933 491.933 42.5 490 42.5H383C381.067 42.5 379.5 40.933 379.5 39V5Z" stroke="#153C3C"/>
<path d="M409.178 16.3359V27H407.787V16.3359H409.178ZM412.606 16.3359V17.4932H404.366V16.3359H412.606ZM416.859 27.1465C416.307 27.1465 415.807 27.0537 415.358 26.8682C414.913 26.6777 414.53 26.4116 414.208 26.0698C413.89 25.728 413.646 25.3228 413.475 24.854C413.304 24.3853 413.219 23.8726 413.219 23.3159V23.0083C413.219 22.3638 413.314 21.79 413.505 21.2871C413.695 20.7793 413.954 20.3496 414.281 19.998C414.608 19.6465 414.979 19.3804 415.394 19.1997C415.809 19.019 416.239 18.9287 416.683 18.9287C417.25 18.9287 417.738 19.0264 418.148 19.2217C418.563 19.417 418.903 19.6904 419.166 20.042C419.43 20.3887 419.625 20.7988 419.752 21.2725C419.879 21.7412 419.943 22.2539 419.943 22.8105V23.4185H414.025V22.3125H418.588V22.21C418.568 21.8584 418.495 21.5166 418.368 21.1846C418.246 20.8525 418.05 20.5791 417.782 20.3643C417.513 20.1494 417.147 20.042 416.683 20.042C416.376 20.042 416.092 20.1079 415.834 20.2397C415.575 20.3667 415.353 20.5571 415.167 20.811C414.982 21.0649 414.838 21.375 414.735 21.7412C414.632 22.1074 414.581 22.5298 414.581 23.0083V23.3159C414.581 23.6919 414.632 24.0459 414.735 24.3779C414.842 24.7051 414.996 24.9932 415.196 25.2422C415.402 25.4912 415.648 25.6865 415.936 25.8281C416.229 25.9697 416.561 26.0405 416.932 26.0405C417.411 26.0405 417.816 25.9429 418.148 25.7476C418.48 25.5522 418.771 25.291 419.02 24.9639L419.84 25.6157C419.669 25.8745 419.452 26.1211 419.188 26.3555C418.924 26.5898 418.6 26.7803 418.214 26.9268C417.833 27.0732 417.382 27.1465 416.859 27.1465ZM423.192 20.6499V27H421.83V19.0752H423.119L423.192 20.6499ZM422.914 22.7373L422.284 22.7153C422.289 22.1733 422.36 21.6729 422.496 21.2139C422.633 20.75 422.836 20.3472 423.104 20.0054C423.373 19.6636 423.707 19.3999 424.108 19.2144C424.508 19.0239 424.972 18.9287 425.499 18.9287C425.87 18.9287 426.212 18.9824 426.525 19.0898C426.837 19.1924 427.108 19.356 427.338 19.5806C427.567 19.8052 427.745 20.0933 427.872 20.4448C427.999 20.7964 428.063 21.2212 428.063 21.7192V27H426.708V21.7852C426.708 21.3701 426.637 21.0381 426.495 20.7891C426.359 20.54 426.163 20.3594 425.91 20.2471C425.656 20.1299 425.358 20.0713 425.016 20.0713C424.616 20.0713 424.281 20.1421 424.013 20.2837C423.744 20.4253 423.529 20.6206 423.368 20.8696C423.207 21.1187 423.09 21.4043 423.016 21.7266C422.948 22.0439 422.914 22.3809 422.914 22.7373ZM428.048 21.9902L427.14 22.2686C427.145 21.834 427.216 21.4165 427.352 21.0161C427.494 20.6157 427.697 20.2593 427.96 19.9468C428.229 19.6343 428.558 19.3877 428.949 19.207C429.34 19.0215 429.786 18.9287 430.289 18.9287C430.714 18.9287 431.09 18.9849 431.417 19.0972C431.749 19.2095 432.028 19.3828 432.252 19.6172C432.482 19.8467 432.655 20.1421 432.772 20.5034C432.89 20.8647 432.948 21.2944 432.948 21.7925V27H431.586V21.7778C431.586 21.3335 431.515 20.9893 431.373 20.7451C431.237 20.4961 431.041 20.3228 430.787 20.2251C430.538 20.1226 430.241 20.0713 429.894 20.0713C429.596 20.0713 429.332 20.1226 429.103 20.2251C428.873 20.3276 428.681 20.4692 428.524 20.6499C428.368 20.8257 428.248 21.0283 428.165 21.2578C428.087 21.4873 428.048 21.7314 428.048 21.9902ZM436.674 20.5986V30.0469H435.312V19.0752H436.557L436.674 20.5986ZM442.013 22.9717V23.1255C442.013 23.7017 441.945 24.2363 441.808 24.7295C441.671 25.2178 441.471 25.6426 441.208 26.0039C440.949 26.3652 440.629 26.646 440.248 26.8462C439.867 27.0464 439.43 27.1465 438.937 27.1465C438.434 27.1465 437.99 27.0635 437.604 26.8975C437.218 26.7314 436.891 26.4897 436.623 26.1724C436.354 25.855 436.139 25.4741 435.978 25.0298C435.822 24.5854 435.714 24.085 435.656 23.5283V22.708C435.714 22.1221 435.824 21.5972 435.985 21.1333C436.147 20.6694 436.359 20.2739 436.623 19.9468C436.891 19.6147 437.216 19.3633 437.597 19.1924C437.978 19.0166 438.417 18.9287 438.915 18.9287C439.413 18.9287 439.855 19.0264 440.241 19.2217C440.627 19.4121 440.951 19.6855 441.215 20.042C441.479 20.3984 441.676 20.8257 441.808 21.3237C441.945 21.8169 442.013 22.3662 442.013 22.9717ZM440.651 23.1255V22.9717C440.651 22.5762 440.609 22.2051 440.526 21.8584C440.443 21.5068 440.314 21.1992 440.138 20.9355C439.967 20.667 439.748 20.457 439.479 20.3057C439.21 20.1494 438.891 20.0713 438.52 20.0713C438.178 20.0713 437.88 20.1299 437.626 20.2471C437.377 20.3643 437.165 20.5229 436.989 20.7231C436.813 20.9185 436.669 21.1431 436.557 21.397C436.449 21.646 436.369 21.9048 436.315 22.1733V24.0703C436.413 24.4121 436.549 24.7344 436.725 25.0371C436.901 25.335 437.135 25.5767 437.428 25.7622C437.721 25.9429 438.09 26.0332 438.534 26.0332C438.9 26.0332 439.215 25.9575 439.479 25.8062C439.748 25.6499 439.967 25.4375 440.138 25.1689C440.314 24.9004 440.443 24.5928 440.526 24.2461C440.609 23.8945 440.651 23.521 440.651 23.1255ZM445.534 15.75V27H444.172V15.75H445.534ZM452.702 25.645V21.5654C452.702 21.2529 452.639 20.9819 452.512 20.7524C452.39 20.5181 452.204 20.3374 451.955 20.2104C451.706 20.0835 451.398 20.02 451.032 20.02C450.69 20.02 450.39 20.0786 450.131 20.1958C449.877 20.313 449.677 20.4668 449.531 20.6572C449.389 20.8477 449.318 21.0527 449.318 21.2725H447.963C447.963 20.9893 448.037 20.7085 448.183 20.4302C448.329 20.1519 448.539 19.9004 448.813 19.6758C449.091 19.4463 449.423 19.2656 449.809 19.1338C450.2 18.9971 450.634 18.9287 451.113 18.9287C451.689 18.9287 452.197 19.0264 452.636 19.2217C453.08 19.417 453.427 19.7124 453.676 20.1079C453.93 20.4985 454.057 20.9893 454.057 21.5801V25.2715C454.057 25.5352 454.079 25.8159 454.123 26.1138C454.172 26.4116 454.243 26.668 454.335 26.8828V27H452.922C452.853 26.8438 452.8 26.6362 452.761 26.3774C452.722 26.1138 452.702 25.8696 452.702 25.645ZM452.936 22.1953L452.951 23.1475H451.581C451.196 23.1475 450.851 23.1792 450.549 23.2427C450.246 23.3013 449.992 23.3916 449.787 23.5137C449.582 23.6357 449.426 23.7896 449.318 23.9751C449.211 24.1558 449.157 24.3682 449.157 24.6123C449.157 24.8613 449.213 25.0884 449.326 25.2935C449.438 25.4985 449.606 25.6621 449.831 25.7842C450.06 25.9014 450.341 25.96 450.673 25.96C451.088 25.96 451.454 25.8721 451.772 25.6963C452.089 25.5205 452.341 25.3057 452.526 25.0518C452.717 24.7979 452.819 24.5513 452.834 24.312L453.412 24.9639C453.378 25.1689 453.286 25.396 453.134 25.645C452.983 25.894 452.78 26.1333 452.526 26.3628C452.277 26.5874 451.979 26.7754 451.633 26.9268C451.291 27.0732 450.905 27.1465 450.475 27.1465C449.938 27.1465 449.467 27.0415 449.062 26.8315C448.662 26.6216 448.349 26.3408 448.124 25.9893C447.905 25.6328 447.795 25.2349 447.795 24.7954C447.795 24.3706 447.878 23.9971 448.044 23.6748C448.21 23.3477 448.449 23.0767 448.762 22.8618C449.074 22.6421 449.45 22.4761 449.89 22.3638C450.329 22.2515 450.82 22.1953 451.362 22.1953H452.936ZM459.826 19.0752V20.1152H455.542V19.0752H459.826ZM456.992 17.1489H458.347V25.0371C458.347 25.3057 458.388 25.5083 458.471 25.645C458.554 25.7817 458.662 25.8721 458.794 25.916C458.925 25.96 459.067 25.9819 459.218 25.9819C459.331 25.9819 459.448 25.9722 459.57 25.9526C459.697 25.9282 459.792 25.9087 459.856 25.894L459.863 27C459.755 27.0342 459.614 27.0659 459.438 27.0952C459.267 27.1294 459.06 27.1465 458.816 27.1465C458.483 27.1465 458.178 27.0806 457.9 26.9487C457.622 26.8169 457.399 26.5972 457.233 26.2896C457.072 25.9771 456.992 25.5571 456.992 25.0298V17.1489ZM465.024 27.1465C464.472 27.1465 463.972 27.0537 463.523 26.8682C463.078 26.6777 462.695 26.4116 462.373 26.0698C462.055 25.728 461.811 25.3228 461.64 24.854C461.469 24.3853 461.384 23.8726 461.384 23.3159V23.0083C461.384 22.3638 461.479 21.79 461.67 21.2871C461.86 20.7793 462.119 20.3496 462.446 19.998C462.773 19.6465 463.144 19.3804 463.559 19.1997C463.974 19.019 464.404 18.9287 464.848 18.9287C465.415 18.9287 465.903 19.0264 466.313 19.2217C466.728 19.417 467.068 19.6904 467.331 20.042C467.595 20.3887 467.79 20.7988 467.917 21.2725C468.044 21.7412 468.108 22.2539 468.108 22.8105V23.4185H462.19V22.3125H466.753V22.21C466.733 21.8584 466.66 21.5166 466.533 21.1846C466.411 20.8525 466.216 20.5791 465.947 20.3643C465.678 20.1494 465.312 20.042 464.848 20.042C464.541 20.042 464.258 20.1079 463.999 20.2397C463.74 20.3667 463.518 20.5571 463.332 20.811C463.147 21.0649 463.003 21.375 462.9 21.7412C462.798 22.1074 462.746 22.5298 462.746 23.0083V23.3159C462.746 23.6919 462.798 24.0459 462.9 24.3779C463.008 24.7051 463.161 24.9932 463.362 25.2422C463.567 25.4912 463.813 25.6865 464.101 25.8281C464.394 25.9697 464.726 26.0405 465.097 26.0405C465.576 26.0405 465.981 25.9429 466.313 25.7476C466.645 25.5522 466.936 25.291 467.185 24.9639L468.005 25.6157C467.834 25.8745 467.617 26.1211 467.353 26.3555C467.09 26.5898 466.765 26.7803 466.379 26.9268C465.998 27.0732 465.547 27.1465 465.024 27.1465Z" fill="#DDE4E4"/>
<path d="M1174 6C1174 3.79086 1175.79 2 1178 2H1276C1278.21 2 1280 3.79086 1280 6V38C1280 40.2091 1278.21 42 1276 42H1178C1175.79 42 1174 40.2091 1174 38V6Z" fill="#84A17D"/>
<path d="M1202.37 20.6772H1200.02L1200.01 19.6934H1202.14C1202.49 19.6934 1202.8 19.6341 1203.06 19.5156C1203.32 19.3971 1203.52 19.2279 1203.67 19.0078C1203.82 18.7835 1203.89 18.5169 1203.89 18.208C1203.89 17.8695 1203.83 17.5944 1203.69 17.3828C1203.57 17.167 1203.37 17.0104 1203.1 16.9131C1202.84 16.8115 1202.51 16.7607 1202.1 16.7607H1200.3V25H1199.07V15.7578H1202.1C1202.57 15.7578 1203 15.8065 1203.37 15.9038C1203.74 15.9969 1204.06 16.145 1204.32 16.3481C1204.58 16.547 1204.78 16.8009 1204.91 17.1099C1205.05 17.4188 1205.12 17.7891 1205.12 18.2207C1205.12 18.6016 1205.02 18.9465 1204.82 19.2554C1204.63 19.5601 1204.36 19.8097 1204.01 20.0044C1203.67 20.1991 1203.27 20.3239 1202.81 20.3789L1202.37 20.6772ZM1202.31 25H1199.54L1200.23 24.0034H1202.31C1202.7 24.0034 1203.03 23.9357 1203.3 23.8003C1203.58 23.6649 1203.78 23.4744 1203.93 23.229C1204.07 22.9793 1204.14 22.6852 1204.14 22.3467C1204.14 22.0039 1204.08 21.7077 1203.96 21.458C1203.84 21.2083 1203.65 21.0158 1203.38 20.8804C1203.12 20.745 1202.78 20.6772 1202.37 20.6772H1200.62L1200.63 19.6934H1203.02L1203.28 20.0488C1203.73 20.0869 1204.1 20.2139 1204.41 20.4297C1204.72 20.6413 1204.95 20.9121 1205.12 21.2422C1205.28 21.5723 1205.36 21.9362 1205.36 22.334C1205.36 22.9095 1205.24 23.3962 1204.98 23.7939C1204.73 24.1875 1204.38 24.488 1203.92 24.6953C1203.47 24.8984 1202.93 25 1202.31 25ZM1211.34 23.4131V18.1318H1212.52V25H1211.39L1211.34 23.4131ZM1211.56 21.9658L1212.05 21.9531C1212.05 22.4102 1212 22.8333 1211.9 23.2227C1211.81 23.6077 1211.66 23.9421 1211.44 24.2256C1211.23 24.5091 1210.96 24.7313 1210.61 24.8921C1210.27 25.0487 1209.85 25.127 1209.36 25.127C1209.03 25.127 1208.72 25.0783 1208.44 24.981C1208.17 24.8836 1207.93 24.7334 1207.73 24.5303C1207.53 24.3271 1207.38 24.0627 1207.27 23.7368C1207.16 23.411 1207.11 23.0195 1207.11 22.5625V18.1318H1208.28V22.5752C1208.28 22.8841 1208.32 23.1401 1208.39 23.3433C1208.46 23.5422 1208.55 23.7008 1208.67 23.8193C1208.79 23.9336 1208.93 24.014 1209.08 24.0605C1209.23 24.1071 1209.39 24.1304 1209.55 24.1304C1210.05 24.1304 1210.44 24.0352 1210.73 23.8447C1211.03 23.6501 1211.24 23.3898 1211.36 23.064C1211.49 22.7339 1211.56 22.3678 1211.56 21.9658ZM1216.38 24.2891L1218.29 18.1318H1219.54L1216.79 26.0601C1216.73 26.2293 1216.64 26.4113 1216.54 26.606C1216.43 26.8049 1216.3 26.9932 1216.14 27.1709C1215.98 27.3486 1215.79 27.4925 1215.56 27.6025C1215.33 27.7168 1215.07 27.7739 1214.75 27.7739C1214.66 27.7739 1214.54 27.7612 1214.4 27.7358C1214.25 27.7104 1214.15 27.6893 1214.09 27.6724L1214.09 26.7202C1214.12 26.7244 1214.17 26.7287 1214.24 26.7329C1214.32 26.7414 1214.37 26.7456 1214.4 26.7456C1214.67 26.7456 1214.9 26.7096 1215.08 26.6377C1215.27 26.57 1215.43 26.4536 1215.55 26.2886C1215.68 26.1278 1215.8 25.9056 1215.89 25.6221L1216.38 24.2891ZM1214.97 18.1318L1216.76 23.4639L1217.06 24.7017L1216.22 25.1333L1213.69 18.1318H1214.97ZM1227.71 16.5767L1224.65 25H1223.4L1226.92 15.7578H1227.73L1227.71 16.5767ZM1230.27 25L1227.21 16.5767L1227.19 15.7578H1227.99L1231.53 25H1230.27ZM1230.11 21.5786V22.5815H1224.92V21.5786H1230.11ZM1234.01 15.25V25H1232.83V15.25H1234.01ZM1237.31 18.1318V25H1236.13V18.1318H1237.31ZM1236.04 16.3101C1236.04 16.1196 1236.09 15.9588 1236.21 15.8276C1236.33 15.6965 1236.5 15.6309 1236.73 15.6309C1236.95 15.6309 1237.12 15.6965 1237.24 15.8276C1237.37 15.9588 1237.43 16.1196 1237.43 16.3101C1237.43 16.492 1237.37 16.6486 1237.24 16.7798C1237.12 16.9067 1236.95 16.9702 1236.73 16.9702C1236.5 16.9702 1236.33 16.9067 1236.21 16.7798C1236.09 16.6486 1236.04 16.492 1236.04 16.3101ZM1243.78 18.1318H1244.85V24.854C1244.85 25.4591 1244.73 25.9754 1244.48 26.4028C1244.23 26.8302 1243.89 27.154 1243.45 27.374C1243.02 27.5983 1242.51 27.7104 1241.94 27.7104C1241.7 27.7104 1241.42 27.6724 1241.1 27.5962C1240.79 27.5243 1240.47 27.3994 1240.16 27.2217C1239.86 27.0482 1239.6 26.8133 1239.4 26.5171L1240.01 25.8188C1240.3 26.1659 1240.6 26.4071 1240.91 26.5425C1241.23 26.6779 1241.54 26.7456 1241.85 26.7456C1242.22 26.7456 1242.55 26.6758 1242.82 26.5361C1243.09 26.3965 1243.3 26.1891 1243.45 25.9141C1243.6 25.6432 1243.67 25.3089 1243.67 24.9111V19.6426L1243.78 18.1318ZM1239.05 21.6421V21.5088C1239.05 20.984 1239.11 20.508 1239.24 20.0806C1239.36 19.6489 1239.54 19.2786 1239.78 18.9697C1240.01 18.6608 1240.3 18.4238 1240.63 18.2588C1240.97 18.0895 1241.34 18.0049 1241.76 18.0049C1242.19 18.0049 1242.57 18.0811 1242.89 18.2334C1243.22 18.3815 1243.49 18.5994 1243.72 18.8872C1243.95 19.1707 1244.13 19.5135 1244.26 19.9155C1244.39 20.3175 1244.48 20.7725 1244.53 21.2803V21.8643C1244.48 22.3678 1244.39 22.8206 1244.26 23.2227C1244.13 23.6247 1243.95 23.9674 1243.72 24.251C1243.49 24.5345 1243.22 24.7524 1242.89 24.9048C1242.57 25.0529 1242.19 25.127 1241.75 25.127C1241.34 25.127 1240.97 25.0402 1240.63 24.8667C1240.3 24.6932 1240.02 24.4499 1239.78 24.1367C1239.55 23.8236 1239.36 23.4554 1239.24 23.0322C1239.11 22.6048 1239.05 22.1414 1239.05 21.6421ZM1240.23 21.5088V21.6421C1240.23 21.9849 1240.26 22.3065 1240.33 22.6069C1240.4 22.9074 1240.51 23.1719 1240.65 23.4004C1240.8 23.6289 1240.99 23.8088 1241.22 23.9399C1241.45 24.0669 1241.72 24.1304 1242.04 24.1304C1242.43 24.1304 1242.75 24.0479 1243 23.8828C1243.25 23.7178 1243.46 23.4998 1243.6 23.229C1243.76 22.9582 1243.87 22.6641 1243.96 22.3467V20.8169C1243.91 20.5841 1243.84 20.3599 1243.74 20.144C1243.65 19.924 1243.53 19.7293 1243.38 19.5601C1243.23 19.3866 1243.04 19.249 1242.82 19.1475C1242.6 19.0459 1242.35 18.9951 1242.05 18.9951C1241.73 18.9951 1241.45 19.0628 1241.22 19.1982C1240.99 19.3294 1240.8 19.5114 1240.65 19.7441C1240.51 19.9727 1240.4 20.2393 1240.33 20.5439C1240.26 20.8444 1240.23 21.166 1240.23 21.5088ZM1247.95 19.5981V25H1246.77V18.1318H1247.88L1247.95 19.5981ZM1247.67 21.3057L1247.18 21.2866C1247.18 20.8169 1247.25 20.3831 1247.39 19.9854C1247.52 19.5833 1247.71 19.2342 1247.96 18.938C1248.2 18.6418 1248.5 18.4132 1248.83 18.2524C1249.18 18.0874 1249.56 18.0049 1249.97 18.0049C1250.31 18.0049 1250.61 18.0514 1250.89 18.1445C1251.16 18.2334 1251.39 18.3773 1251.58 18.5762C1251.77 18.7751 1251.92 19.0332 1252.02 19.3506C1252.12 19.6637 1252.17 20.0467 1252.17 20.4995V25H1250.99V20.4868C1250.99 20.1271 1250.94 19.8394 1250.83 19.6235C1250.73 19.4035 1250.57 19.2448 1250.37 19.1475C1250.17 19.0459 1249.92 18.9951 1249.62 18.9951C1249.33 18.9951 1249.06 19.0565 1248.82 19.1792C1248.59 19.3019 1248.38 19.4712 1248.21 19.687C1248.04 19.9028 1247.9 20.1504 1247.81 20.4297C1247.71 20.7048 1247.67 20.9967 1247.67 21.3057Z" fill="white"/>
</svg>
