<svg width="241" height="80" viewBox="0 0 241 80" fill="none" xmlns="http://www.w3.org/2000/svg">
<path d="M82.3786 61.4883C82.5919 61.1722 82.7582 60.812 82.8695 60.4245L85.7348 60.5795L86.9188 59.4469C87.5772 59.7485 87.8047 61.25 89.31 60.1879L90.0051 59.4543L95.8649 59.7714L96.7642 58.7563C98.6966 58.4353 100.793 58.9742 102.87 58.8207L103.702 57.8817L113.375 58.4052L114.58 57.3002L116.174 58.6099L117.775 57.287L134.449 58.1893L135.571 57L168.036 58.7568L169.213 60.2565L171.414 59.0725L176.972 59.3733L177.97 60.4379C179.276 61.3596 180.438 59.6406 181.783 59.4474L182.88 60.7567L190.464 61.1671L191.54 60.0551L192.219 60.9696C192.348 60.9766 192.445 61.3009 192.573 61.3079L208.193 62.1531L209.477 63.6852L211.42 62.4606L215.212 62.6658L216.036 63.7742L219.009 63.9351L220.039 62.8739L221.032 64.0978L222.949 64.2015L224.047 63.0641L225.735 65.3894C226.845 65.7154 227.868 66.1165 228.807 64.5717L233.783 64.8409L234.756 66.0371C235.803 66.3331 236.921 65.8351 238.142 66.7256L237.209 68.0582L241 70.7365C238.103 71.4574 226.033 70.9904 215.672 69.7649L214.973 68.7962L211.979 68.6342L210.926 69.7208L205.044 69.4026L204.074 68.1533L203.108 69.2445C201.754 69.2912 200.401 69.2179 199.058 69.0253L198.276 67.9459L193.256 67.6743L192.207 68.6281L188.415 68.423C188.025 67.9552 187.556 67.5985 187.043 67.3777C186.528 67.1569 185.981 67.0774 185.439 67.1449L184.319 68.2811L178.503 67.9664L177.359 69.1809L170.487 68.8091L169.766 69.6478C169.637 69.6408 169.497 69.9523 169.368 69.9453L138.044 68.2503L136.657 69.6114L134.765 68.1793C134.306 67.9298 133.791 67.8852 133.308 68.0533C132.826 68.2213 132.405 68.5915 132.121 69.0999L106.592 67.7185L105.384 68.9296L101.484 68.7186L100.513 67.496C100.2 67.3927 99.8698 67.4043 99.5624 67.5294C99.255 67.6546 98.984 67.8877 98.7829 68.2002C97.951 69.1391 97.33 68.3875 96.6549 67.3404L95.5195 68.3161L92.805 68.1692L91.532 69.3769L83.8196 68.9595L82.6111 70.1707L72.852 69.6426L71.7297 70.8584L62.8755 70.3792L61.9968 71.4221L59.0884 71.2647L57.8145 72.499L57.0108 71.4183L52.8961 71.1956L51.9069 72.3122L46.9734 72.0453L46.0282 73.1377L40.19 72.8217L39.0462 74.0364L35.1038 73.8231L34.2467 74.8671L30.2612 74.6513C29.834 75.1336 29.6073 75.4404 29.3395 75.6919C28.5563 76.4739 27.3912 75.2407 26.6586 76.4244C25.9261 77.6081 25.1515 76.9279 24.4817 76.9449C23.812 76.9618 23.2107 76.876 22.6917 77.5128C21.784 78.7669 20.0064 77.1549 19.2896 79.1106L14.3131 78.8414L13.2379 77.5066C13.0168 78.2659 12.7976 78.972 12.5559 79.7036C11.4474 80.0687 10.2836 80.0969 9.16415 79.7861L8.57988 77.3876L7.42205 78.3887L6.46677 77.3264L5.39417 78.3587L2.37812 78.1955L0.0348466 74.8773C-0.0547853 73.9838 0.0290949 73.0768 0.279553 72.2312L3.48949 72.4048L4.48882 73.4428L8.49588 73.6598L9.37267 72.67L12.238 72.8251L13.4248 71.6128L16.29 71.7677L17.4338 70.5532L22.3242 70.8178L23.2459 69.7773L26.1973 69.937L27.2325 68.7431L29.9685 68.8912L31.3493 67.6893L35.8302 67.9318L39.565 65.4744L46.028 65.8242L47.1492 64.6349L55.0126 65.0604C55.2599 64.7812 55.5071 64.5021 55.9137 63.9922L60.8471 64.2592L61.9488 63.0156L66.8606 63.2814L67.9622 62.0379L73.8652 62.3573L74.8328 61.2395L79.6585 61.5007L80.8003 60.3391C81.2221 60.807 81.695 61.1997 82.2053 61.5055C82.3757 62.1796 82.148 63.1247 83.1466 62.3543C82.9329 62.0134 82.673 61.7204 82.3786 61.4883Z" fill="#ADC9A6"/>
<path d="M23.045 15.5312L7.9825 57H1.82625L19.17 11.5H23.1387L23.045 15.5312ZM35.67 57L20.5762 15.5312L20.4825 11.5H24.4512L41.8575 57H35.67ZM34.8887 40.1562V45.0938H9.32625V40.1562H34.8887ZM56.2375 9V57H50.425V9H56.2375ZM74.68 23.1875V57H68.8675V23.1875H74.68ZM68.43 14.2188C68.43 13.2812 68.7113 12.4896 69.2738 11.8438C69.8571 11.1979 70.7113 10.875 71.8363 10.875C72.9404 10.875 73.7842 11.1979 74.3675 11.8438C74.9717 12.4896 75.2738 13.2812 75.2738 14.2188C75.2738 15.1146 74.9717 15.8854 74.3675 16.5312C73.7842 17.1562 72.9404 17.4688 71.8363 17.4688C70.7113 17.4688 69.8571 17.1562 69.2738 16.5312C68.7113 15.8854 68.43 15.1146 68.43 14.2188ZM108.747 23.1875H113.997V56.2812C113.997 59.2604 113.393 61.8021 112.185 63.9062C110.977 66.0104 109.289 67.6042 107.122 68.6875C104.977 69.7917 102.497 70.3438 99.685 70.3438C98.5183 70.3438 97.1433 70.1562 95.56 69.7812C93.9975 69.4271 92.4558 68.8125 90.935 67.9375C89.435 67.0833 88.1746 65.9271 87.1537 64.4688L90.185 61.0312C91.6017 62.7396 93.0808 63.9271 94.6225 64.5938C96.185 65.2604 97.7267 65.5938 99.2475 65.5938C101.081 65.5938 102.664 65.25 103.997 64.5625C105.331 63.875 106.362 62.8542 107.091 61.5C107.841 60.1667 108.216 58.5208 108.216 56.5625V30.625L108.747 23.1875ZM85.4662 40.4688V39.8125C85.4662 37.2292 85.7683 34.8854 86.3725 32.7812C86.9975 30.6562 87.8829 28.8333 89.0287 27.3125C90.1954 25.7917 91.6017 24.625 93.2475 23.8125C94.8933 22.9792 96.7475 22.5625 98.81 22.5625C100.935 22.5625 102.789 22.9375 104.372 23.6875C105.977 24.4167 107.331 25.4896 108.435 26.9062C109.56 28.3021 110.445 29.9896 111.091 31.9688C111.737 33.9479 112.185 36.1875 112.435 38.6875V41.5625C112.206 44.0417 111.758 46.2708 111.091 48.25C110.445 50.2292 109.56 51.9167 108.435 53.3125C107.331 54.7083 105.977 55.7812 104.372 56.5312C102.768 57.2604 100.893 57.625 98.7475 57.625C96.7267 57.625 94.8933 57.1979 93.2475 56.3438C91.6225 55.4896 90.2267 54.2917 89.06 52.75C87.8933 51.2083 86.9975 49.3958 86.3725 47.3125C85.7683 45.2083 85.4662 42.9271 85.4662 40.4688ZM91.2475 39.8125V40.4688C91.2475 42.1562 91.4142 43.7396 91.7475 45.2188C92.1017 46.6979 92.6329 48 93.3412 49.125C94.0704 50.25 94.9975 51.1354 96.1225 51.7812C97.2475 52.4062 98.5912 52.7188 100.154 52.7188C102.07 52.7188 103.654 52.3125 104.904 51.5C106.154 50.6875 107.143 49.6146 107.872 48.2812C108.622 46.9479 109.206 45.5 109.622 43.9375V36.4062C109.393 35.2604 109.039 34.1562 108.56 33.0938C108.102 32.0104 107.497 31.0521 106.747 30.2188C106.018 29.3646 105.112 28.6875 104.029 28.1875C102.945 27.6875 101.675 27.4375 100.216 27.4375C98.6329 27.4375 97.2683 27.7708 96.1225 28.4375C94.9975 29.0833 94.0704 29.9792 93.3412 31.125C92.6329 32.25 92.1017 33.5625 91.7475 35.0625C91.4142 36.5417 91.2475 38.125 91.2475 39.8125ZM131.44 30.4062V57H125.659V23.1875H131.128L131.44 30.4062ZM130.065 38.8125L127.659 38.7188C127.68 36.4062 128.023 34.2708 128.69 32.3125C129.357 30.3333 130.294 28.6146 131.503 27.1562C132.711 25.6979 134.148 24.5729 135.815 23.7812C137.503 22.9688 139.367 22.5625 141.409 22.5625C143.075 22.5625 144.575 22.7917 145.909 23.25C147.242 23.6875 148.378 24.3958 149.315 25.375C150.273 26.3542 151.003 27.625 151.503 29.1875C152.003 30.7292 152.253 32.6146 152.253 34.8438V57H146.44V34.7812C146.44 33.0104 146.18 31.5938 145.659 30.5312C145.138 29.4479 144.378 28.6667 143.378 28.1875C142.378 27.6875 141.148 27.4375 139.69 27.4375C138.253 27.4375 136.94 27.7396 135.753 28.3438C134.586 28.9479 133.575 29.7812 132.721 30.8438C131.888 31.9062 131.232 33.125 130.753 34.5C130.294 35.8542 130.065 37.2917 130.065 38.8125ZM209.575 11.5H215.575V42.2812C215.575 45.6979 214.815 48.5417 213.294 50.8125C211.773 53.0833 209.752 54.7917 207.231 55.9375C204.731 57.0625 202.012 57.625 199.075 57.625C195.992 57.625 193.2 57.0625 190.7 55.9375C188.221 54.7917 186.252 53.0833 184.794 50.8125C183.356 48.5417 182.637 45.6979 182.637 42.2812V11.5H188.606V42.2812C188.606 44.6562 189.044 46.6146 189.919 48.1562C190.794 49.6979 192.012 50.8438 193.575 51.5938C195.158 52.3438 196.992 52.7188 199.075 52.7188C201.179 52.7188 203.012 52.3438 204.575 51.5938C206.158 50.8438 207.387 49.6979 208.262 48.1562C209.137 46.6146 209.575 44.6562 209.575 42.2812V11.5ZM234.393 11.5V57H228.361V11.5H234.393Z" fill="#172426"/>
</svg>
